<svg width="123" height="107" viewBox="0 0 123 107" fill="none" xmlns="http://www.w3.org/2000/svg">
<path d="M12.2761 0.184809C12.7124 0.182322 13.1487 0.179835 13.5982 0.177273C15.0579 0.170158 16.5174 0.169815 17.977 0.169498C19.0246 0.165878 20.0721 0.161876 21.1196 0.15752C23.9639 0.1471 26.8082 0.14292 29.6526 0.140507C31.4303 0.138776 33.208 0.135813 34.9857 0.132433C40.8696 0.121401 46.7534 0.114763 52.6373 0.113183C52.9542 0.113096 53.2711 0.113009 53.5977 0.11292C53.915 0.112834 54.2323 0.112748 54.5593 0.11266C59.6993 0.110979 64.8391 0.0981488 69.9791 0.0803911C75.2628 0.0622835 80.5465 0.0533199 85.8303 0.0529674C88.7942 0.052591 91.7581 0.0484453 94.7221 0.0349229C97.5108 0.0224843 100.299 0.0214463 103.088 0.0290607C104.11 0.0299219 105.131 0.0267494 106.153 0.0191742C116.693 -0.0541951 116.693 -0.054195 119.749 2.68943C122.902 5.83907 122.989 9.59295 123 13.7928C122.994 14.6337 122.987 15.4746 122.98 16.3155C122.983 17.2114 122.988 18.1074 122.993 19.0034C123.004 21.426 122.997 23.8482 122.986 26.2708C122.977 28.8119 122.982 31.3531 122.986 33.8943C122.989 38.1609 122.98 42.4274 122.964 46.694C122.946 51.6192 122.947 56.5442 122.958 61.4694C122.968 66.2171 122.965 70.9646 122.955 75.7123C122.951 77.7283 122.952 79.7443 122.957 81.7604C122.962 84.1367 122.955 86.5126 122.939 88.8888C122.936 89.7583 122.936 90.6278 122.94 91.4973C122.981 100.442 122.981 100.442 120.227 103.84C117.215 106.274 114.596 106.76 110.764 106.762C110.111 106.765 110.111 106.765 109.445 106.769C107.981 106.775 106.517 106.778 105.053 106.781C104.006 106.785 102.958 106.789 101.911 106.793C98.4658 106.805 95.0205 106.812 91.5752 106.819C90.3893 106.822 89.2035 106.824 88.0177 106.827C83.0844 106.837 78.1512 106.846 73.218 106.851C71.9379 106.853 70.6579 106.854 69.3778 106.856C69.0597 106.856 68.7416 106.856 68.4138 106.857C63.2644 106.863 58.1152 106.878 52.9659 106.898C47.6757 106.918 42.3856 106.929 37.0954 106.932C34.1266 106.934 31.1579 106.939 28.1891 106.955C25.3945 106.969 22.6001 106.972 19.8054 106.967C18.7815 106.966 17.7576 106.97 16.7337 106.979C6.47077 107.058 6.47077 107.058 3.11868 104.315C0.478675 101.558 0.179449 99.0852 0.180379 95.43C0.178621 95.059 0.176864 94.6881 0.175054 94.3059C0.169785 93.0617 0.167942 91.8176 0.16612 90.5734C0.163125 89.6818 0.159948 88.7902 0.156602 87.8985C0.14655 84.9692 0.141592 82.04 0.136829 79.1107C0.134894 78.1017 0.132926 77.0928 0.130926 76.0839C0.12182 71.3436 0.115017 66.6033 0.111035 61.863C0.106364 56.3937 0.0937846 50.9244 0.0744688 45.4551C0.0600464 41.226 0.0529737 36.997 0.051391 32.7679C0.0502682 30.2428 0.0459936 27.7178 0.033963 25.1928C0.0228229 22.8162 0.0208165 20.4399 0.0257231 18.0633C0.0259596 17.1929 0.0229457 16.3224 0.0163755 15.452C-0.0500297 6.13041 -0.0500294 6.13041 2.82069 2.89839C5.62491 0.337166 8.67847 0.174621 12.2761 0.184809ZM43.1226 16.1695C42.7173 16.3144 42.3119 16.4594 41.8943 16.6087C41.2379 16.8488 41.2379 16.8488 40.5682 17.0937C40.1092 17.2589 39.6502 17.4241 39.1773 17.5944C37.6823 18.1335 36.1891 18.6772 34.696 19.2214C33.6743 19.5916 32.6525 19.9617 31.6307 20.3317C28.6571 21.4102 25.6862 22.4958 22.7163 23.5844C22.1008 23.8098 22.1008 23.8098 21.4729 24.0398C19.1263 24.9002 16.7826 25.7677 14.4411 26.6414C13.8758 26.851 13.3105 27.0605 12.7281 27.2764C12.2207 27.4679 11.7132 27.6593 11.1904 27.8565C10.7577 28.019 10.3249 28.1815 9.87906 28.3489C8.78165 28.7686 8.78165 28.7686 7.89859 29.7579C7.85914 30.9519 7.85914 30.9519 8.37659 32.1323C9.45907 32.9487 9.45907 32.9487 10.8636 33.531C11.3834 33.7699 11.9031 34.0088 12.4386 34.2549C13.2672 34.6146 13.2672 34.6146 14.1125 34.9816C14.6526 35.2178 15.1926 35.4539 15.749 35.6972C17.3891 36.4017 19.0353 37.0893 20.6849 37.7716C21.2517 38.0079 21.8186 38.2441 22.4027 38.4876C23.7811 39.0619 25.1603 39.6345 26.5403 40.2053C26.5644 40.6595 26.5885 41.1136 26.6133 41.5814C26.6496 42.1784 26.6859 42.7754 26.7233 43.3904C26.7742 44.2773 26.7742 44.2773 26.8262 45.182C27.1019 47.5815 27.8006 49.6639 29.6846 51.3132C30.5991 52.3417 30.6218 53.1287 30.7824 54.4816C31.5308 59.0636 33.707 62.6392 37.0561 65.8491C37.5293 66.0842 37.5293 66.0842 38.0121 66.324C38.3108 67.7784 38.3108 67.7784 38.4901 69.1733C38.1826 69.2199 37.8751 69.2664 37.5584 69.3143C29.4632 70.5452 29.4632 70.5452 23.1943 75.3468C22.3012 77.0314 21.7801 78.7359 21.2824 80.5706C21.1961 80.8809 21.1098 81.1912 21.021 81.5108C19.6316 85.9637 19.6316 85.9637 19.3704 90.5432C20.5305 91.6957 20.8074 91.612 22.3947 91.6135C22.829 91.6162 23.2633 91.6189 23.7108 91.6217C24.1886 91.6197 24.6663 91.6178 25.1586 91.6158C25.6607 91.6175 26.1628 91.6192 26.6801 91.6209C28.3464 91.6251 30.0125 91.6223 31.6787 91.6191C32.8324 91.6197 33.9862 91.6206 35.1399 91.6218C37.5605 91.6232 39.9811 91.6212 42.4018 91.6168C45.5106 91.6114 48.6193 91.6145 51.7281 91.6202C54.1112 91.6236 56.4944 91.6225 58.8776 91.62C60.0241 91.6194 61.1707 91.6202 62.3172 91.6224C63.9173 91.6248 65.5172 91.6211 67.1173 91.6158C67.834 91.6187 67.834 91.6187 68.5651 91.6217C68.9994 91.619 69.4337 91.6163 69.8811 91.6135C70.449 91.613 70.449 91.613 71.0283 91.6125C72.0634 91.5727 72.0634 91.5727 72.9055 90.5432C73.0004 87.5699 72.0795 84.5208 71.3221 81.6688C71.2263 81.2816 71.1305 80.8944 71.0318 80.4955C70.0927 76.9225 68.5277 74.0117 65.2576 72.0227C63.8522 71.4549 62.4273 71.0762 60.9557 70.7167C60.5823 70.6182 60.2089 70.5196 59.8242 70.4181C57.8231 69.8993 55.8338 69.4733 53.7858 69.1733C53.7858 68.2331 53.7858 67.2928 53.7858 66.324C54.121 66.2359 54.4562 66.1477 54.8015 66.0569C57.7208 64.6068 59.3427 61.9003 60.5766 58.9782C61.0107 57.6015 61.2098 56.2667 61.4038 54.8377C61.7789 52.1919 62.448 51.1158 64.3016 49.2282C65.2863 47.299 65.4353 45.5252 65.5564 43.3811C65.6451 41.8091 65.6451 41.8091 65.7356 40.2053C69.3636 38.6382 72.9915 37.0711 76.7294 35.4565C76.7294 37.8072 76.7294 40.1579 76.7294 42.5798C76.0985 42.8932 75.4675 43.2066 74.8174 43.5295C73.3284 44.9268 72.936 45.7159 72.6067 47.7442C72.7015 49.8121 73.6611 50.9212 75.0527 52.3873C76.4189 53.6004 77.7016 53.7142 79.5152 53.7043C81.403 53.3366 82.6481 52.0436 83.8993 50.6528C84.6792 49.1032 84.7058 47.5721 84.3773 45.904C83.5878 44.6177 82.6779 43.5422 81.5093 42.5798C81.1939 42.5798 80.8784 42.5798 80.5533 42.5798C80.7111 39.6022 80.8688 36.6247 81.0313 33.557C81.9778 33.0868 82.9242 32.6167 83.8993 32.1323C84.3625 30.9051 84.3625 30.9051 84.3773 29.7579C82.099 28.2238 79.604 27.3952 77.0338 26.4745C76.5445 26.2969 76.0552 26.1193 75.5511 25.9364C73.9829 25.3677 72.4136 24.8024 70.8441 24.2373C69.314 23.6842 67.7841 23.1303 66.2543 22.5761C65.2352 22.207 64.2159 21.8386 63.1963 21.4709C60.5589 20.5176 57.9287 19.5488 55.3068 18.554C54.7822 18.3556 54.2577 18.1571 53.7172 17.9526C52.7159 17.5727 51.7155 17.1901 50.7164 16.8045C50.2683 16.6347 49.8201 16.4648 49.3584 16.2897C48.966 16.139 48.5735 15.9883 48.1692 15.833C46.3092 15.2766 44.8883 15.531 43.1226 16.1695ZM92.0251 24.0593C92.1637 25.6296 92.1637 25.6296 92.9811 26.9086C95.1991 27.0293 97.4223 26.9965 99.6431 26.9976C100.585 27.0063 100.585 27.0063 101.547 27.0152C102.145 27.0161 102.744 27.0171 103.361 27.018C104.19 27.0209 104.19 27.0209 105.035 27.0239C106.432 27.0454 106.432 27.0454 107.321 25.9588C107.182 24.3884 107.182 24.3884 106.365 23.1095C104.147 22.9888 101.924 23.0215 99.7029 23.0204C98.7606 23.0117 98.7606 23.0117 97.7993 23.0028C97.2007 23.0019 96.6021 23.001 95.9854 23C95.4327 22.9981 94.8801 22.9961 94.3107 22.9941C92.9139 22.9727 92.9139 22.9727 92.0251 24.0593ZM93.0076 36.6473C91.2176 39.162 91.7064 42.9636 92.0251 45.904C92.9188 47.7071 94.0497 48.8092 95.8491 49.7031C97.9882 49.8483 100.129 49.8723 102.272 49.8954C102.985 49.9056 103.698 49.9218 104.41 49.9441C109.138 50.2397 109.138 50.2397 113.275 48.3248C115.466 45.9763 115.23 43.224 115.172 40.1831C114.932 37.9679 114.438 36.9733 112.822 35.488C110.501 33.8577 107.463 34.3439 104.721 34.3144C104.009 34.3042 103.296 34.288 102.584 34.2657C97.3146 33.9782 97.3146 33.9782 93.0076 36.6473ZM92.0251 58.251C92.1637 59.8214 92.1637 59.8213 92.9811 61.1003C93.6363 61.1493 94.2939 61.1661 94.9509 61.1693C95.3688 61.1723 95.7868 61.1753 96.2174 61.1785C96.8992 61.1792 96.8992 61.1792 97.5949 61.1801C98.0587 61.1816 98.5226 61.1832 99.0006 61.1848C99.9838 61.1873 100.967 61.1884 101.95 61.1883C103.459 61.1893 104.967 61.1979 106.476 61.207C107.429 61.2083 108.382 61.2093 109.336 61.2097C110.016 61.2149 110.016 61.2149 110.71 61.2201C111.339 61.2179 111.339 61.2179 111.981 61.2157C112.536 61.2167 112.536 61.2167 113.103 61.2177C114.128 61.1789 114.128 61.1789 114.969 60.1505C114.83 58.5802 114.83 58.5802 114.013 57.3012C113.358 57.2522 112.7 57.2354 112.043 57.2322C111.625 57.2292 111.207 57.2262 110.777 57.223C110.322 57.2225 109.867 57.222 109.399 57.2214C108.935 57.2199 108.471 57.2183 107.993 57.2167C107.01 57.2142 106.027 57.2131 105.044 57.2132C103.535 57.2122 102.026 57.2036 100.518 57.1945C99.5647 57.1932 98.6115 57.1922 97.6584 57.1918C97.2048 57.1884 96.7511 57.1849 96.2838 57.1814C95.6546 57.1836 95.6546 57.1836 95.0127 57.1859C94.6427 57.1852 94.2726 57.1845 93.8913 57.1838C92.8658 57.2226 92.8658 57.2226 92.0251 58.251ZM93.0076 70.839C91.2176 73.3538 91.7064 77.1553 92.0251 80.0957C92.9188 81.8988 94.0497 83.0009 95.8491 83.8948C97.9882 84.0401 100.129 84.064 102.272 84.0871C102.985 84.0973 103.698 84.1135 104.41 84.1358C109.138 84.4314 109.138 84.4314 113.275 82.5165C115.466 80.168 115.23 77.4157 115.172 74.3748C114.932 72.1596 114.438 71.165 112.822 69.6798C110.501 68.0495 107.463 68.5356 104.721 68.5061C104.009 68.4959 103.296 68.4797 102.584 68.4574C97.3146 68.1699 97.3146 68.1699 93.0076 70.839Z" fill="#E3E4EC"/>
<path d="M61.4337 44.0044C61.4759 45.805 61.501 47.6054 61.5233 49.4062C61.5353 49.91 61.5473 50.4139 61.5597 50.9329C61.6078 56.1238 60.5494 60.4054 57.1317 64.4245C53.9188 67.5685 50.1557 68.7067 45.7197 68.9656C41.4329 68.8342 37.8935 66.9178 34.935 63.8902C31.3866 59.376 30.4845 54.9762 30.6928 49.3469C30.7036 48.7837 30.7144 48.2205 30.7255 47.6403C30.7533 46.2694 30.7924 44.8998 30.8422 43.5295C39.3375 41.3581 53.405 39.7542 61.4337 44.0044Z" fill="#FEBD7D"/>
<path d="M52.9755 17.6984C53.4519 17.8701 53.9284 18.0419 54.4193 18.2189C55.9417 18.7684 57.4628 19.3214 58.984 19.8743C59.9884 20.2372 60.9929 20.5999 61.9976 20.9623C67.398 22.9133 72.7884 24.8894 78.1634 26.9086C77.6902 27.6138 77.6902 27.6138 77.2074 28.3332C77.064 29.5626 76.9643 30.7511 76.9087 31.9839C76.8809 32.4839 76.8809 32.4839 76.8526 32.994C76.8077 33.8146 76.768 34.6355 76.7294 35.4565C75.0881 36.173 73.4444 36.8838 71.8001 37.5935C71.1 37.8993 71.1 37.8993 70.3857 38.2112C69.9375 38.404 69.4892 38.5969 69.0274 38.7955C68.4079 39.0641 68.4079 39.0641 67.7758 39.3381C66.6916 39.7305 66.6916 39.7305 65.2576 39.7305C65.0999 36.5962 64.9421 33.462 64.7796 30.2328C55.2968 25.5222 39.8693 26.1758 29.8265 29.0752C28.542 29.4645 28.542 29.4645 27.4963 30.2328C27.4214 30.9386 27.3764 31.6477 27.345 32.3568C27.315 32.9972 27.315 32.9972 27.2843 33.6506C27.2655 34.0997 27.2467 34.5487 27.2274 35.0113C27.1964 35.6876 27.1964 35.6876 27.1648 36.3775C27.114 37.4951 27.0652 38.6127 27.0183 39.7305C24.6822 39.449 22.6915 38.7312 20.5579 37.7883C20.0581 37.5713 20.0581 37.5713 19.5483 37.3499C18.8486 37.0453 18.1497 36.7391 17.4514 36.4314C16.3813 35.9603 15.3087 35.4952 14.2357 35.0308C13.5547 34.7334 12.8738 34.4357 12.1931 34.1376C11.8724 33.9985 11.5518 33.8595 11.2214 33.7163C9.9132 33.1368 8.92063 32.6728 7.89859 31.6574C7.80897 30.5296 7.80897 30.5296 8.37659 29.283C9.2022 28.8096 9.2022 28.8096 10.2593 28.3689C10.649 28.206 11.0388 28.043 11.4403 27.8751C13.4616 27.0725 15.4948 26.309 17.5387 25.5655C17.9957 25.398 18.4527 25.2305 18.9236 25.058C20.3766 24.5259 21.8302 23.9957 23.284 23.4656C24.2347 23.1176 25.1854 22.7695 26.136 22.4213C28.0286 21.728 29.9227 21.039 31.8176 20.352C33.7586 19.6466 35.6916 18.923 37.6211 18.1872C38.0974 18.0082 38.5736 17.8292 39.0643 17.6449C39.9682 17.305 40.8702 16.96 41.7699 16.609C46.0447 15.0158 48.8308 16.1856 52.9755 17.6984Z" fill="#343439"/>
<path d="M24.1503 74.3971C24.2553 74.687 24.3602 74.9769 24.4683 75.2755C25.3319 76.6576 26.1421 76.8736 27.6662 77.4375C28.1875 77.6338 28.7089 77.8301 29.246 78.0323C30.0805 78.3338 30.0805 78.3338 30.9318 78.6414C31.4955 78.8494 32.0592 79.0574 32.64 79.2717C33.7611 79.6831 34.8834 80.0911 36.007 80.4955C37.2809 80.9543 38.5498 81.4238 39.8176 81.8988C40.4303 82.12 41.0433 82.3403 41.6568 82.5592C42.1657 82.7422 42.6747 82.9252 43.199 83.1138C46.602 83.8059 49.7674 82.6421 52.9456 81.5111C53.3517 81.3687 53.7578 81.2263 54.1762 81.0796C55.0277 80.7794 55.8784 80.4772 56.7284 80.173C58.0315 79.7086 59.3383 79.2559 60.6457 78.8037C61.475 78.5097 62.304 78.2151 63.1328 77.9198C63.5236 77.7856 63.9145 77.6515 64.3171 77.5133C64.6779 77.3819 65.0387 77.2504 65.4105 77.115C65.728 77.0026 66.0455 76.8901 66.3726 76.7742C67.4049 76.1555 67.6786 75.4884 68.1256 74.3971C70.1502 76.9464 70.8161 79.6164 71.591 82.7372C71.7832 83.4695 71.7832 83.4695 71.9794 84.2166C73.0811 88.525 73.0811 88.525 72.9055 90.5432C71.7454 91.6957 71.4684 91.612 69.8811 91.6135C69.2297 91.6176 69.2297 91.6176 68.5651 91.6217C68.0873 91.6197 67.6096 91.6178 67.1173 91.6158C66.6152 91.6175 66.1131 91.6192 65.5957 91.6209C63.9295 91.6251 62.2634 91.6223 60.5972 91.6191C59.4434 91.6197 58.2897 91.6206 57.136 91.6218C54.7153 91.6232 52.2947 91.6212 49.8741 91.6168C46.7653 91.6114 43.6566 91.6145 40.5478 91.6202C38.1646 91.6236 35.7815 91.6225 33.3983 91.62C32.2517 91.6194 31.1052 91.6202 29.9586 91.6224C28.3586 91.6248 26.7586 91.6211 25.1586 91.6158C24.4419 91.6187 24.4419 91.6187 23.7108 91.6217C23.2765 91.619 22.8422 91.6163 22.3947 91.6135C22.0162 91.6132 21.6376 91.6128 21.2476 91.6125C20.3264 91.4929 20.3264 91.4929 19.3704 90.5432C19.2754 87.5699 20.1964 84.5208 20.9537 81.6688C21.0975 81.088 21.0975 81.088 21.2441 80.4955C21.8702 78.1132 22.6518 76.3621 24.1503 74.3971Z" fill="#333439"/>
<path d="M64.7796 29.7579C65.9006 30.8715 65.4874 33.539 65.5564 35.041C65.581 35.4866 65.6056 35.9323 65.631 36.3914C65.7485 38.8414 65.79 41.127 65.2576 43.5295C64.7844 43.9997 64.7844 43.9997 64.3016 44.4793C62.4563 44.3297 60.7226 43.953 58.9242 43.5295C49.9463 41.5105 39.7463 41.8783 30.8422 44.0044C29.2682 44.3476 29.2682 44.3476 27.9742 44.4793C26.3852 42.9006 26.5644 40.6944 26.5109 38.5532C26.5142 37.3111 26.5521 36.0743 26.6 34.8332C26.605 34.4093 26.6099 33.9854 26.615 33.5486C26.6604 32.3956 26.7354 31.352 27.0183 30.2328C33.8164 24.0235 57.0845 25.3974 64.7796 29.7579Z" fill="#444449"/>
<path d="M38.4901 69.1733C38.6004 69.4598 38.7107 69.7463 38.8243 70.0415C39.9531 72.7897 40.9939 74.4536 43.748 75.8217C46.4646 76.1024 48.5985 75.9511 50.9179 74.3971C52.5052 72.7763 53.1107 71.306 53.7858 69.1733C55.141 69.4567 56.495 69.7442 57.8487 70.0341C58.2271 70.1127 58.6054 70.1914 58.9952 70.2724C66.0568 71.7964 66.0568 71.7964 67.6476 73.9222C67.7372 75.1984 67.7372 75.1984 67.6476 76.2966C63.5941 78.0216 59.5039 79.6177 55.3582 81.1081C54.7036 81.345 54.0502 81.5855 53.3981 81.8292C47.0519 84.1994 43.6031 83.6749 37.1756 81.4016C36.6482 81.2198 36.1207 81.038 35.5773 80.8507C25.7706 77.4315 25.7706 77.4315 24.6283 76.2966C24.4491 75.1984 24.4491 75.1984 24.6283 73.9222C26.6948 71.7527 29.2877 71.2245 32.0969 70.4793C32.5529 70.3519 33.0089 70.2246 33.4786 70.0934C36.8334 69.1733 36.8334 69.1733 38.4901 69.1733Z" fill="#0AAC4F"/>
<path d="M102.272 68.5061C102.985 68.4959 103.698 68.4797 104.41 68.4574C111.087 68.2503 111.087 68.2503 113.275 70.0767C115.466 72.4252 115.23 75.1775 115.172 78.2184C114.932 80.4336 114.438 81.4282 112.822 82.9135C110.501 84.5438 107.463 84.0576 104.721 84.0871C104.009 84.0973 103.296 84.1135 102.584 84.1358C95.9069 84.3429 95.9069 84.3429 93.7187 82.5165C91.5281 80.168 91.7643 77.4157 91.8216 74.3748C92.0618 72.1596 92.5564 71.165 94.1724 69.6798C96.4926 68.0495 99.5307 68.5357 102.272 68.5061Z" fill="#767684"/>
<path d="M102.272 34.3144C102.985 34.3042 103.698 34.288 104.41 34.2657C111.087 34.0586 111.087 34.0586 113.275 35.885C115.466 38.2335 115.23 40.9858 115.172 44.0267C114.932 46.2419 114.438 47.2365 112.822 48.7217C110.501 50.352 107.463 49.8659 104.721 49.8954C104.009 49.9056 103.296 49.9218 102.584 49.9441C95.9069 50.1512 95.9069 50.1512 93.7187 48.3248C91.5281 45.9763 91.7643 43.224 91.8216 40.1831C92.0618 37.9679 92.5564 36.9733 94.1724 35.488C96.4926 33.8577 99.5307 34.3439 102.272 34.3144Z" fill="#767684"/>
<path d="M80.5534 42.1049C82.1431 43.0845 83.5336 44.2276 84.3773 45.904C84.7581 49.093 84.7581 49.093 83.7705 50.6751C82.1822 52.5333 81.3016 53.4139 78.7908 53.7099C76.6207 53.6981 75.5632 52.8076 74.0276 51.3689C72.8065 50.0115 72.692 48.7371 72.702 46.9354C73.0721 45.0598 74.3736 43.8228 75.7734 42.5798C77.3329 41.8051 78.8746 41.7779 80.5534 42.1049Z" fill="#EC4432"/>
<path d="M38.4901 66.7989C38.7341 66.9018 38.9781 67.0046 39.2295 67.1106C44.2202 69.0095 48.7987 68.4375 53.7858 66.7989C53.9242 69.4563 53.8856 71.1615 52.3518 73.4473C50.4414 75.366 48.7239 76.3558 45.9886 76.445C43.7756 76.4165 42.5832 75.853 40.88 74.3971C38.562 71.8452 38.4357 70.096 38.4901 66.7989Z" fill="#EDA057"/>
<path d="M94.9509 57.2322C95.5778 57.2277 95.5778 57.2277 96.2174 57.223C96.8992 57.2223 96.8992 57.2223 97.5949 57.2214C98.2907 57.2191 98.2907 57.2191 99.0006 57.2167C99.9838 57.2142 100.967 57.2131 101.95 57.2132C103.459 57.2122 104.967 57.2036 106.476 57.1945C107.429 57.1932 108.382 57.1922 109.336 57.1918C109.789 57.1884 110.243 57.1849 110.71 57.1814C111.13 57.1829 111.549 57.1843 111.981 57.1859C112.351 57.1852 112.721 57.1845 113.103 57.1838C114.013 57.3012 114.013 57.3012 114.969 58.251C114.703 60.4143 114.703 60.4143 114.013 61.1003C113.358 61.1493 112.7 61.1661 112.043 61.1693C111.416 61.1738 111.416 61.1738 110.777 61.1785C110.095 61.1792 110.095 61.1792 109.399 61.1801C108.703 61.1824 108.703 61.1824 107.993 61.1848C107.01 61.1873 106.027 61.1884 105.044 61.1883C103.535 61.1893 102.026 61.1979 100.518 61.207C99.5647 61.2083 98.6115 61.2093 97.6584 61.2097C96.9779 61.2149 96.9779 61.2149 96.2838 61.2201C95.8643 61.2186 95.4449 61.2172 95.0127 61.2157C94.6427 61.2163 94.2726 61.217 93.8913 61.2177C92.9811 61.1003 92.9811 61.1003 92.0251 60.1505C92.3222 57.7308 92.5348 57.2441 94.9509 57.2322Z" fill="#45454A"/>
<path d="M99.6431 23.0204C100.271 23.0146 100.899 23.0088 101.547 23.0028C102.145 23.0019 102.744 23.001 103.361 23C103.913 22.9981 104.466 22.9961 105.035 22.9941C106.365 23.1095 106.365 23.1095 107.321 24.0593C107.055 26.2226 107.055 26.2226 106.365 26.9086C104.147 27.0293 101.924 26.9965 99.7029 26.9976C99.0747 27.0034 98.4465 27.0092 97.7993 27.0152C97.2007 27.0161 96.6021 27.0171 95.9854 27.018C95.1564 27.0209 95.1564 27.0209 94.3107 27.0239C92.9811 26.9086 92.9811 26.9086 92.0251 25.9588C92.5464 21.7125 96.0355 23.0222 99.6431 23.0204Z" fill="#46464B"/>
<path d="M77.6854 27.3835C79.8629 27.6473 79.8629 27.6473 80.5533 28.3332C80.5953 29.3521 80.6045 30.3724 80.6 31.3921C80.5985 32.012 80.5969 32.6318 80.5954 33.2704C80.5914 33.9298 80.5873 34.5893 80.5832 35.2487C80.5808 35.91 80.5786 36.5714 80.5767 37.2327C80.571 38.8568 80.5632 40.4808 80.5534 42.1049C79.2915 42.1049 78.0295 42.1049 76.7294 42.1049C76.7058 40.161 76.6884 38.2172 76.6769 36.2732C76.6721 35.6117 76.6656 34.9502 76.6573 34.2888C76.6457 33.3387 76.6408 32.3886 76.6361 31.4385C76.631 30.8665 76.626 30.2946 76.6209 29.7052C76.7294 28.3332 76.7294 28.3332 77.6854 27.3835Z" fill="#FDAF00"/>
<path d="M65.2576 43.5295C65.491 46.3115 64.981 48.3461 63.3456 50.6528C62.7147 51.123 62.0837 51.5931 61.4337 52.0775C61.4337 49.4134 61.4337 46.7493 61.4337 44.0044C62.3801 44.0044 63.3265 44.0044 64.3016 44.0044C64.7796 43.5295 64.7796 43.5295 65.2576 43.5295Z" fill="#37373C"/>
<path d="M27.0183 43.5295C27.4718 43.6079 27.9253 43.6863 28.3925 43.767C29.7914 44.0294 29.7914 44.0294 30.8422 44.0044C30.8422 46.6685 30.8422 49.3326 30.8422 52.0775C28.4805 50.2004 27.9024 49.5814 27.0183 46.8537C26.9286 44.9839 26.9286 44.9839 27.0183 43.5295Z" fill="#37373C"/>
<path d="M80.0754 27.8583C83.3018 28.6894 83.3018 28.6894 84.3773 29.7579C84.4072 30.9154 84.4072 30.9154 83.8993 32.1323C82.1964 32.993 82.1964 32.993 80.5533 33.557C80.3956 31.6764 80.2379 29.7959 80.0754 27.8583Z" fill="#3A3A3F"/>
<path d="M12.2761 0.184809C12.7124 0.182322 13.1487 0.179835 13.5982 0.177273C15.0579 0.170158 16.5174 0.169815 17.977 0.169498C19.0246 0.165878 20.0721 0.161876 21.1196 0.15752C23.9639 0.1471 26.8082 0.14292 29.6526 0.140507C31.4303 0.138776 33.208 0.135813 34.9857 0.132433C40.8696 0.121401 46.7534 0.114763 52.6373 0.113183C52.9542 0.113096 53.2711 0.113009 53.5977 0.11292C53.915 0.112834 54.2323 0.112748 54.5593 0.11266C59.6993 0.110979 64.8391 0.0981488 69.9791 0.0803911C75.2628 0.0622835 80.5465 0.0533199 85.8303 0.0529674C88.7942 0.052591 91.7581 0.0484453 94.7221 0.0349229C97.5108 0.0224843 100.299 0.0214463 103.088 0.0290607C104.11 0.0299219 105.131 0.0267494 106.153 0.0191742C116.693 -0.0541951 116.693 -0.054195 119.749 2.68943C122.902 5.83907 122.989 9.59295 123 13.7928C122.994 14.6337 122.987 15.4746 122.98 16.3155C122.983 17.2114 122.988 18.1074 122.993 19.0034C123.004 21.426 122.997 23.8482 122.986 26.2708C122.977 28.8119 122.982 31.3531 122.986 33.8943C122.989 38.1609 122.98 42.4274 122.964 46.694C122.946 51.6192 122.947 56.5442 122.958 61.4694C122.968 66.2171 122.965 70.9646 122.955 75.7123C122.951 77.7283 122.952 79.7443 122.957 81.7604C122.962 84.1367 122.955 86.5126 122.939 88.8888C122.936 89.7583 122.936 90.6278 122.94 91.4973C122.981 100.442 122.981 100.442 120.227 103.84C117.215 106.274 114.596 106.76 110.764 106.762C110.111 106.765 110.111 106.765 109.445 106.769C107.981 106.775 106.517 106.778 105.053 106.781C104.006 106.785 102.958 106.789 101.911 106.793C98.4658 106.805 95.0205 106.812 91.5752 106.819C90.3893 106.822 89.2035 106.824 88.0177 106.827C83.0844 106.837 78.1512 106.846 73.218 106.851C71.9379 106.853 70.6579 106.854 69.3778 106.856C69.0597 106.856 68.7416 106.856 68.4138 106.857C63.2644 106.863 58.1152 106.878 52.9659 106.898C47.6757 106.918 42.3856 106.929 37.0954 106.932C34.1266 106.934 31.1579 106.939 28.1891 106.955C25.3945 106.969 22.6001 106.972 19.8054 106.967C18.7815 106.966 17.7576 106.97 16.7337 106.979C6.47077 107.058 6.47077 107.058 3.11868 104.315C0.478675 101.558 0.179449 99.0852 0.180379 95.43C0.178621 95.059 0.176864 94.6881 0.175054 94.3059C0.169785 93.0617 0.167942 91.8176 0.16612 90.5734C0.163125 89.6818 0.159948 88.7902 0.156602 87.8985C0.14655 84.9692 0.141592 82.04 0.136829 79.1107C0.134894 78.1017 0.132926 77.0928 0.130926 76.0839C0.12182 71.3436 0.115017 66.6033 0.111035 61.863C0.106364 56.3937 0.0937846 50.9244 0.0744688 45.4551C0.0600464 41.226 0.0529737 36.997 0.051391 32.7679C0.0502682 30.2428 0.0459936 27.7178 0.033963 25.1928C0.0228229 22.8162 0.0208165 20.4399 0.0257231 18.0633C0.0259596 17.1929 0.0229457 16.3224 0.0163755 15.452C-0.0500297 6.13041 -0.0500294 6.13041 2.82069 2.89839C5.62491 0.337166 8.67847 0.174621 12.2761 0.184809ZM43.1226 16.1695C42.7173 16.3144 42.3119 16.4594 41.8943 16.6087C41.2379 16.8488 41.2379 16.8488 40.5682 17.0937C40.1092 17.2589 39.6502 17.4241 39.1773 17.5944C37.6823 18.1335 36.1891 18.6772 34.696 19.2214C33.6743 19.5916 32.6525 19.9617 31.6307 20.3317C28.6571 21.4102 25.6862 22.4958 22.7163 23.5844C22.1008 23.8098 22.1008 23.8098 21.4729 24.0398C19.1263 24.9002 16.7826 25.7677 14.4411 26.6414C13.8758 26.851 13.3105 27.0605 12.7281 27.2764C12.2207 27.4679 11.7132 27.6593 11.1904 27.8565C10.7577 28.019 10.3249 28.1815 9.87906 28.3489C8.78165 28.7686 8.78165 28.7686 7.89859 29.7579C7.85914 30.9519 7.85914 30.9519 8.37659 32.1323C9.45907 32.9487 9.45907 32.9487 10.8636 33.531C11.3834 33.7699 11.9031 34.0088 12.4386 34.2549C13.2672 34.6146 13.2672 34.6146 14.1125 34.9816C14.6526 35.2178 15.1926 35.4539 15.749 35.6972C17.3891 36.4017 19.0353 37.0893 20.6849 37.7716C21.2517 38.0079 21.8186 38.2441 22.4027 38.4876C23.7811 39.0619 25.1603 39.6345 26.5403 40.2053C26.5644 40.6595 26.5885 41.1136 26.6133 41.5814C26.6496 42.1784 26.6859 42.7754 26.7233 43.3904C26.7742 44.2773 26.7742 44.2773 26.8262 45.182C27.1019 47.5815 27.8006 49.6639 29.6846 51.3132C30.5991 52.3417 30.6218 53.1287 30.7824 54.4816C31.5308 59.0636 33.707 62.6392 37.0561 65.8491C37.5293 66.0842 37.5293 66.0842 38.0121 66.324C38.3108 67.7784 38.3108 67.7784 38.4901 69.1733C38.1826 69.2199 37.8751 69.2664 37.5584 69.3143C29.4632 70.5452 29.4632 70.5452 23.1943 75.3468C22.3012 77.0314 21.7801 78.7359 21.2824 80.5706C21.1961 80.8809 21.1098 81.1912 21.021 81.5108C19.6316 85.9637 19.6316 85.9637 19.3704 90.5432C20.5305 91.6957 20.8074 91.612 22.3947 91.6135C22.829 91.6162 23.2633 91.6189 23.7108 91.6217C24.1886 91.6197 24.6663 91.6178 25.1586 91.6158C25.6607 91.6175 26.1628 91.6192 26.6801 91.6209C28.3464 91.6251 30.0125 91.6223 31.6787 91.6191C32.8324 91.6197 33.9862 91.6206 35.1399 91.6218C37.5605 91.6232 39.9811 91.6212 42.4018 91.6168C45.5106 91.6114 48.6193 91.6145 51.7281 91.6202C54.1112 91.6236 56.4944 91.6225 58.8776 91.62C60.0241 91.6194 61.1707 91.6202 62.3172 91.6224C63.9173 91.6248 65.5172 91.6211 67.1173 91.6158C67.834 91.6187 67.834 91.6187 68.5651 91.6217C68.9994 91.619 69.4337 91.6163 69.8811 91.6135C70.449 91.613 70.449 91.613 71.0283 91.6125C72.0634 91.5727 72.0634 91.5727 72.9055 90.5432C73.0004 87.5699 72.0795 84.5208 71.3221 81.6688C71.2263 81.2816 71.1305 80.8944 71.0318 80.4955C70.0927 76.9225 68.5277 74.0117 65.2576 72.0227C63.8522 71.4549 62.4273 71.0762 60.9557 70.7167C60.5823 70.6182 60.2089 70.5196 59.8242 70.4181C57.8231 69.8993 55.8338 69.4733 53.7858 69.1733C53.7858 68.2331 53.7858 67.2928 53.7858 66.324C54.121 66.2359 54.4562 66.1477 54.8015 66.0569C57.7208 64.6068 59.3427 61.9003 60.5766 58.9782C61.0107 57.6015 61.2098 56.2667 61.4038 54.8377C61.7789 52.1919 62.448 51.1158 64.3016 49.2282C65.2863 47.299 65.4353 45.5252 65.5564 43.3811C65.6451 41.8091 65.6451 41.8091 65.7356 40.2053C69.3636 38.6382 72.9915 37.0711 76.7294 35.4565C76.7294 37.8072 76.7294 40.1579 76.7294 42.5798C76.0985 42.8932 75.4675 43.2066 74.8174 43.5295C73.3284 44.9268 72.936 45.7159 72.6067 47.7442C72.7015 49.8121 73.6611 50.9212 75.0527 52.3873C76.4189 53.6004 77.7016 53.7142 79.5152 53.7043C81.403 53.3366 82.6481 52.0436 83.8993 50.6528C84.6792 49.1032 84.7058 47.5721 84.3773 45.904C83.5878 44.6177 82.6779 43.5422 81.5093 42.5798C81.1939 42.5798 80.8784 42.5798 80.5533 42.5798C80.7111 39.6022 80.8688 36.6247 81.0313 33.557C81.9778 33.0868 82.9242 32.6167 83.8993 32.1323C84.3625 30.9051 84.3625 30.9051 84.3773 29.7579C82.099 28.2238 79.604 27.3952 77.0338 26.4745C76.5445 26.2969 76.0552 26.1193 75.5511 25.9364C73.9829 25.3677 72.4136 24.8024 70.8441 24.2373C69.314 23.6842 67.7841 23.1303 66.2543 22.5761C65.2352 22.207 64.2159 21.8386 63.1963 21.4709C60.5589 20.5176 57.9287 19.5488 55.3068 18.554C54.7822 18.3556 54.2577 18.1571 53.7172 17.9526C52.7159 17.5727 51.7155 17.1901 50.7164 16.8045C50.2683 16.6347 49.8201 16.4648 49.3584 16.2897C48.966 16.139 48.5735 15.9883 48.1692 15.833C46.3092 15.2766 44.8883 15.531 43.1226 16.1695ZM92.0251 24.0593C92.1637 25.6296 92.1637 25.6296 92.9811 26.9086C95.1991 27.0293 97.4223 26.9965 99.6431 26.9976C100.585 27.0063 100.585 27.0063 101.547 27.0152C102.145 27.0161 102.744 27.0171 103.361 27.018C104.19 27.0209 104.19 27.0209 105.035 27.0239C106.432 27.0454 106.432 27.0454 107.321 25.9588C107.182 24.3884 107.182 24.3884 106.365 23.1095C104.147 22.9888 101.924 23.0215 99.7029 23.0204C98.7606 23.0117 98.7606 23.0117 97.7993 23.0028C97.2007 23.0019 96.6021 23.001 95.9854 23C95.4327 22.9981 94.8801 22.9961 94.3107 22.9941C92.9139 22.9727 92.9139 22.9727 92.0251 24.0593ZM93.0076 36.6473C91.2176 39.162 91.7064 42.9636 92.0251 45.904C92.9188 47.7071 94.0497 48.8092 95.8491 49.7031C97.9882 49.8483 100.129 49.8723 102.272 49.8954C102.985 49.9056 103.698 49.9218 104.41 49.9441C109.138 50.2397 109.138 50.2397 113.275 48.3248C115.466 45.9763 115.23 43.224 115.172 40.1831C114.932 37.9679 114.438 36.9733 112.822 35.488C110.501 33.8577 107.463 34.3439 104.721 34.3144C104.009 34.3042 103.296 34.288 102.584 34.2657C97.3146 33.9782 97.3146 33.9782 93.0076 36.6473ZM92.0251 58.251C92.1637 59.8214 92.1637 59.8213 92.9811 61.1003C93.6363 61.1493 94.2939 61.1661 94.9509 61.1693C95.3688 61.1723 95.7868 61.1753 96.2174 61.1785C96.8992 61.1792 96.8992 61.1792 97.5949 61.1801C98.0587 61.1816 98.5226 61.1832 99.0006 61.1848C99.9838 61.1873 100.967 61.1884 101.95 61.1883C103.459 61.1893 104.967 61.1979 106.476 61.207C107.429 61.2083 108.382 61.2093 109.336 61.2097C110.016 61.2149 110.016 61.2149 110.71 61.2201C111.339 61.2179 111.339 61.2179 111.981 61.2157C112.536 61.2167 112.536 61.2167 113.103 61.2177C114.128 61.1789 114.128 61.1789 114.969 60.1505C114.83 58.5802 114.83 58.5802 114.013 57.3012C113.358 57.2522 112.7 57.2354 112.043 57.2322C111.625 57.2292 111.207 57.2262 110.777 57.223C110.322 57.2225 109.867 57.222 109.399 57.2214C108.935 57.2199 108.471 57.2183 107.993 57.2167C107.01 57.2142 106.027 57.2131 105.044 57.2132C103.535 57.2122 102.026 57.2036 100.518 57.1945C99.5647 57.1932 98.6115 57.1922 97.6584 57.1918C97.2048 57.1884 96.7511 57.1849 96.2838 57.1814C95.6546 57.1836 95.6546 57.1836 95.0127 57.1859C94.6427 57.1852 94.2726 57.1845 93.8913 57.1838C92.8658 57.2226 92.8658 57.2226 92.0251 58.251ZM93.0076 70.839C91.2176 73.3538 91.7064 77.1553 92.0251 80.0957C92.9188 81.8988 94.0497 83.0009 95.8491 83.8948C97.9882 84.0401 100.129 84.064 102.272 84.0871C102.985 84.0973 103.698 84.1135 104.41 84.1358C109.138 84.4314 109.138 84.4314 113.275 82.5165C115.466 80.168 115.23 77.4157 115.172 74.3748C114.932 72.1596 114.438 71.165 112.822 69.6798C110.501 68.0495 107.463 68.5356 104.721 68.5061C104.009 68.4959 103.296 68.4797 102.584 68.4574C97.3146 68.1699 97.3146 68.1699 93.0076 70.839Z" fill="#E3E4EC"/>
<path d="M61.4337 44.0044C61.4759 45.805 61.501 47.6054 61.5233 49.4062C61.5353 49.91 61.5473 50.4139 61.5597 50.9329C61.6078 56.1238 60.5494 60.4054 57.1317 64.4245C53.9188 67.5685 50.1557 68.7067 45.7197 68.9656C41.4329 68.8342 37.8935 66.9178 34.935 63.8902C31.3866 59.376 30.4845 54.9762 30.6928 49.3469C30.7036 48.7837 30.7144 48.2205 30.7255 47.6403C30.7533 46.2694 30.7924 44.8998 30.8422 43.5295C39.3375 41.3581 53.405 39.7542 61.4337 44.0044Z" fill="#FEBD7D"/>
<path d="M52.9755 17.6984C53.4519 17.8701 53.9284 18.0419 54.4193 18.2189C55.9417 18.7684 57.4628 19.3214 58.984 19.8743C59.9884 20.2372 60.9929 20.5999 61.9976 20.9623C67.398 22.9133 72.7884 24.8894 78.1634 26.9086C77.6902 27.6138 77.6902 27.6138 77.2074 28.3332C77.064 29.5626 76.9643 30.7511 76.9087 31.9839C76.8809 32.4839 76.8809 32.4839 76.8526 32.994C76.8077 33.8146 76.768 34.6355 76.7294 35.4565C75.0881 36.173 73.4444 36.8838 71.8001 37.5935C71.1 37.8993 71.1 37.8993 70.3857 38.2112C69.9375 38.404 69.4892 38.5969 69.0274 38.7955C68.4079 39.0641 68.4079 39.0641 67.7758 39.3381C66.6916 39.7305 66.6916 39.7305 65.2576 39.7305C65.0999 36.5962 64.9421 33.462 64.7796 30.2328C55.2968 25.5222 39.8693 26.1758 29.8265 29.0752C28.542 29.4645 28.542 29.4645 27.4963 30.2328C27.4214 30.9386 27.3764 31.6477 27.345 32.3568C27.315 32.9972 27.315 32.9972 27.2843 33.6506C27.2655 34.0997 27.2467 34.5487 27.2274 35.0113C27.1964 35.6876 27.1964 35.6876 27.1648 36.3775C27.114 37.4951 27.0652 38.6127 27.0183 39.7305C24.6822 39.449 22.6915 38.7312 20.5579 37.7883C20.0581 37.5713 20.0581 37.5713 19.5483 37.3499C18.8486 37.0453 18.1497 36.7391 17.4514 36.4314C16.3813 35.9603 15.3087 35.4952 14.2357 35.0308C13.5547 34.7334 12.8738 34.4357 12.1931 34.1376C11.8724 33.9985 11.5518 33.8595 11.2214 33.7163C9.9132 33.1368 8.92063 32.6728 7.89859 31.6574C7.80897 30.5296 7.80897 30.5296 8.37659 29.283C9.2022 28.8096 9.2022 28.8096 10.2593 28.3689C10.649 28.206 11.0388 28.043 11.4403 27.8751C13.4616 27.0725 15.4948 26.309 17.5387 25.5655C17.9957 25.398 18.4527 25.2305 18.9236 25.058C20.3766 24.5259 21.8302 23.9957 23.284 23.4656C24.2347 23.1176 25.1854 22.7695 26.136 22.4213C28.0286 21.728 29.9227 21.039 31.8176 20.352C33.7586 19.6466 35.6916 18.923 37.6211 18.1872C38.0974 18.0082 38.5736 17.8292 39.0643 17.6449C39.9682 17.305 40.8702 16.96 41.7699 16.609C46.0447 15.0158 48.8308 16.1856 52.9755 17.6984Z" fill="#343439"/>
<path d="M24.1503 74.3971C24.2553 74.687 24.3602 74.9769 24.4683 75.2755C25.3319 76.6576 26.1421 76.8736 27.6662 77.4375C28.1875 77.6338 28.7089 77.8301 29.246 78.0323C30.0805 78.3338 30.0805 78.3338 30.9318 78.6414C31.4955 78.8494 32.0592 79.0574 32.64 79.2717C33.7611 79.6831 34.8834 80.0911 36.007 80.4955C37.2809 80.9543 38.5498 81.4238 39.8176 81.8988C40.4303 82.12 41.0433 82.3403 41.6568 82.5592C42.1657 82.7422 42.6747 82.9252 43.199 83.1138C46.602 83.8059 49.7674 82.6421 52.9456 81.5111C53.3517 81.3687 53.7578 81.2263 54.1762 81.0796C55.0277 80.7794 55.8784 80.4772 56.7284 80.173C58.0315 79.7086 59.3383 79.2559 60.6457 78.8037C61.475 78.5097 62.304 78.2151 63.1328 77.9198C63.5236 77.7856 63.9145 77.6515 64.3171 77.5133C64.6779 77.3819 65.0387 77.2504 65.4105 77.115C65.728 77.0026 66.0455 76.8901 66.3726 76.7742C67.4049 76.1555 67.6786 75.4884 68.1256 74.3971C70.1502 76.9464 70.8161 79.6164 71.591 82.7372C71.7832 83.4695 71.7832 83.4695 71.9794 84.2166C73.0811 88.525 73.0811 88.525 72.9055 90.5432C71.7454 91.6957 71.4684 91.612 69.8811 91.6135C69.2297 91.6176 69.2297 91.6176 68.5651 91.6217C68.0873 91.6197 67.6096 91.6178 67.1173 91.6158C66.6152 91.6175 66.1131 91.6192 65.5957 91.6209C63.9295 91.6251 62.2634 91.6223 60.5972 91.6191C59.4434 91.6197 58.2897 91.6206 57.136 91.6218C54.7153 91.6232 52.2947 91.6212 49.8741 91.6168C46.7653 91.6114 43.6566 91.6145 40.5478 91.6202C38.1646 91.6236 35.7815 91.6225 33.3983 91.62C32.2517 91.6194 31.1052 91.6202 29.9586 91.6224C28.3586 91.6248 26.7586 91.6211 25.1586 91.6158C24.4419 91.6187 24.4419 91.6187 23.7108 91.6217C23.2765 91.619 22.8422 91.6163 22.3947 91.6135C22.0162 91.6132 21.6376 91.6128 21.2476 91.6125C20.3264 91.4929 20.3264 91.4929 19.3704 90.5432C19.2754 87.5699 20.1964 84.5208 20.9537 81.6688C21.0975 81.088 21.0975 81.088 21.2441 80.4955C21.8702 78.1132 22.6518 76.3621 24.1503 74.3971Z" fill="#333439"/>
<path d="M64.7796 29.7579C65.9006 30.8715 65.4874 33.539 65.5564 35.041C65.581 35.4866 65.6056 35.9323 65.631 36.3914C65.7485 38.8414 65.79 41.127 65.2576 43.5295C64.7844 43.9997 64.7844 43.9997 64.3016 44.4793C62.4563 44.3297 60.7226 43.953 58.9242 43.5295C49.9463 41.5105 39.7463 41.8783 30.8422 44.0044C29.2682 44.3476 29.2682 44.3476 27.9742 44.4793C26.3852 42.9006 26.5644 40.6944 26.5109 38.5532C26.5142 37.3111 26.5521 36.0743 26.6 34.8332C26.605 34.4093 26.6099 33.9854 26.615 33.5486C26.6604 32.3956 26.7354 31.352 27.0183 30.2328C33.8164 24.0235 57.0845 25.3974 64.7796 29.7579Z" fill="#444449"/>
<path d="M38.4901 69.1733C38.6004 69.4598 38.7107 69.7463 38.8243 70.0415C39.9531 72.7897 40.9939 74.4536 43.748 75.8217C46.4646 76.1024 48.5985 75.9511 50.9179 74.3971C52.5052 72.7763 53.1107 71.306 53.7858 69.1733C55.141 69.4567 56.495 69.7442 57.8487 70.0341C58.2271 70.1127 58.6054 70.1914 58.9952 70.2724C66.0568 71.7964 66.0568 71.7964 67.6476 73.9222C67.7372 75.1984 67.7372 75.1984 67.6476 76.2966C63.5941 78.0216 59.5039 79.6177 55.3582 81.1081C54.7036 81.345 54.0502 81.5855 53.3981 81.8292C47.0519 84.1994 43.6031 83.6749 37.1756 81.4016C36.6482 81.2198 36.1207 81.038 35.5773 80.8507C25.7706 77.4315 25.7706 77.4315 24.6283 76.2966C24.4491 75.1984 24.4491 75.1984 24.6283 73.9222C26.6948 71.7527 29.2877 71.2245 32.0969 70.4793C32.5529 70.3519 33.0089 70.2246 33.4786 70.0934C36.8334 69.1733 36.8334 69.1733 38.4901 69.1733Z" fill="#0AAC4F"/>
<path d="M102.272 68.5061C102.985 68.4959 103.698 68.4797 104.41 68.4574C111.087 68.2503 111.087 68.2503 113.275 70.0767C115.466 72.4252 115.23 75.1775 115.172 78.2184C114.932 80.4336 114.438 81.4282 112.822 82.9135C110.501 84.5438 107.463 84.0576 104.721 84.0871C104.009 84.0973 103.296 84.1135 102.584 84.1358C95.9069 84.3429 95.9069 84.3429 93.7187 82.5165C91.5281 80.168 91.7643 77.4157 91.8216 74.3748C92.0618 72.1596 92.5564 71.165 94.1724 69.6798C96.4926 68.0495 99.5307 68.5357 102.272 68.5061Z" fill="#767684"/>
<path d="M102.272 34.3144C102.985 34.3042 103.698 34.288 104.41 34.2657C111.087 34.0586 111.087 34.0586 113.275 35.885C115.466 38.2335 115.23 40.9858 115.172 44.0267C114.932 46.2419 114.438 47.2365 112.822 48.7217C110.501 50.352 107.463 49.8659 104.721 49.8954C104.009 49.9056 103.296 49.9218 102.584 49.9441C95.9069 50.1512 95.9069 50.1512 93.7187 48.3248C91.5281 45.9763 91.7643 43.224 91.8216 40.1831C92.0618 37.9679 92.5564 36.9733 94.1724 35.488C96.4926 33.8577 99.5307 34.3439 102.272 34.3144Z" fill="#767684"/>
<path d="M80.5534 42.1049C82.1431 43.0845 83.5336 44.2276 84.3773 45.904C84.7581 49.093 84.7581 49.093 83.7705 50.6751C82.1822 52.5333 81.3016 53.4139 78.7908 53.7099C76.6207 53.6981 75.5632 52.8076 74.0276 51.3689C72.8065 50.0115 72.692 48.7371 72.702 46.9354C73.0721 45.0598 74.3736 43.8228 75.7734 42.5798C77.3329 41.8051 78.8746 41.7779 80.5534 42.1049Z" fill="#EC4432"/>
<path d="M38.4901 66.7989C38.7341 66.9018 38.9781 67.0046 39.2295 67.1106C44.2202 69.0095 48.7987 68.4375 53.7858 66.7989C53.9242 69.4563 53.8856 71.1615 52.3518 73.4473C50.4414 75.366 48.7239 76.3558 45.9886 76.445C43.7756 76.4165 42.5832 75.853 40.88 74.3971C38.562 71.8452 38.4357 70.096 38.4901 66.7989Z" fill="#EDA057"/>
<path d="M94.9509 57.2322C95.5778 57.2277 95.5778 57.2277 96.2174 57.223C96.8992 57.2223 96.8992 57.2223 97.5949 57.2214C98.2907 57.2191 98.2907 57.2191 99.0006 57.2167C99.9838 57.2142 100.967 57.2131 101.95 57.2132C103.459 57.2122 104.967 57.2036 106.476 57.1945C107.429 57.1932 108.382 57.1922 109.336 57.1918C109.789 57.1884 110.243 57.1849 110.71 57.1814C111.13 57.1829 111.549 57.1843 111.981 57.1859C112.351 57.1852 112.721 57.1845 113.103 57.1838C114.013 57.3012 114.013 57.3012 114.969 58.251C114.703 60.4143 114.703 60.4143 114.013 61.1003C113.358 61.1493 112.7 61.1661 112.043 61.1693C111.416 61.1738 111.416 61.1738 110.777 61.1785C110.095 61.1792 110.095 61.1792 109.399 61.1801C108.703 61.1824 108.703 61.1824 107.993 61.1848C107.01 61.1873 106.027 61.1884 105.044 61.1883C103.535 61.1893 102.026 61.1979 100.518 61.207C99.5647 61.2083 98.6115 61.2093 97.6584 61.2097C96.9779 61.2149 96.9779 61.2149 96.2838 61.2201C95.8643 61.2186 95.4449 61.2172 95.0127 61.2157C94.6427 61.2163 94.2726 61.217 93.8913 61.2177C92.9811 61.1003 92.9811 61.1003 92.0251 60.1505C92.3222 57.7308 92.5348 57.2441 94.9509 57.2322Z" fill="#45454A"/>
<path d="M99.6431 23.0204C100.271 23.0146 100.899 23.0088 101.547 23.0028C102.145 23.0019 102.744 23.001 103.361 23C103.913 22.9981 104.466 22.9961 105.035 22.9941C106.365 23.1095 106.365 23.1095 107.321 24.0593C107.055 26.2226 107.055 26.2226 106.365 26.9086C104.147 27.0293 101.924 26.9965 99.7029 26.9976C99.0747 27.0034 98.4465 27.0092 97.7993 27.0152C97.2007 27.0161 96.6021 27.0171 95.9854 27.018C95.1564 27.0209 95.1564 27.0209 94.3107 27.0239C92.9811 26.9086 92.9811 26.9086 92.0251 25.9588C92.5464 21.7125 96.0355 23.0222 99.6431 23.0204Z" fill="#46464B"/>
<path d="M77.6854 27.3835C79.8629 27.6473 79.8629 27.6473 80.5533 28.3332C80.5953 29.3521 80.6045 30.3724 80.6 31.3921C80.5985 32.012 80.5969 32.6318 80.5954 33.2704C80.5914 33.9298 80.5873 34.5893 80.5832 35.2487C80.5808 35.91 80.5786 36.5714 80.5767 37.2327C80.571 38.8568 80.5632 40.4808 80.5534 42.1049C79.2915 42.1049 78.0295 42.1049 76.7294 42.1049C76.7058 40.161 76.6884 38.2172 76.6769 36.2732C76.6721 35.6117 76.6656 34.9502 76.6573 34.2888C76.6457 33.3387 76.6408 32.3886 76.6361 31.4385C76.631 30.8665 76.626 30.2946 76.6209 29.7052C76.7294 28.3332 76.7294 28.3332 77.6854 27.3835Z" fill="#FDAF00"/>
<path d="M65.2576 43.5295C65.491 46.3115 64.981 48.3461 63.3456 50.6528C62.7147 51.123 62.0837 51.5931 61.4337 52.0775C61.4337 49.4134 61.4337 46.7493 61.4337 44.0044C62.3801 44.0044 63.3265 44.0044 64.3016 44.0044C64.7796 43.5295 64.7796 43.5295 65.2576 43.5295Z" fill="#37373C"/>
<path d="M27.0183 43.5295C27.4718 43.6079 27.9253 43.6863 28.3925 43.767C29.7914 44.0294 29.7914 44.0294 30.8422 44.0044C30.8422 46.6685 30.8422 49.3326 30.8422 52.0775C28.4805 50.2004 27.9024 49.5814 27.0183 46.8537C26.9286 44.9839 26.9286 44.9839 27.0183 43.5295Z" fill="#37373C"/>
<path d="M80.0754 27.8583C83.3018 28.6894 83.3018 28.6894 84.3773 29.7579C84.4072 30.9154 84.4072 30.9154 83.8993 32.1323C82.1964 32.993 82.1964 32.993 80.5533 33.557C80.3956 31.6764 80.2379 29.7959 80.0754 27.8583Z" fill="#3A3A3F"/>
</svg>
